<?xml version="1.0" encoding="UTF-8" standalone="no"?>
<!DOCTYPE svg PUBLIC "-//W3C//DTD SVG 1.1//EN" "http://www.w3.org/Graphics/SVG/1.1/DTD/svg11.dtd">
<svg version="1.1" xmlns="http://www.w3.org/2000/svg" xmlns:xlink="http://www.w3.org/1999/xlink" preserveAspectRatio="xMidYMid meet" viewBox="0 0 640 640" width="640" height="640"><defs><path d="M298.7 7.43L301.21 7.68L303.7 8.04L306.15 8.49L308.57 9.04L310.95 9.68L313.29 10.41L315.6 11.23L317.86 12.13L320.07 13.12L322.24 14.2L324.37 15.35L326.44 16.58L328.46 17.89L330.42 19.28L332.33 20.74L334.18 22.26L335.97 23.86L337.7 25.52L339.36 27.25L340.96 29.04L342.48 30.89L343.94 32.8L345.33 34.76L346.64 36.78L347.87 38.85L349.02 40.98L350.1 43.15L351.09 45.36L351.99 47.63L352.81 49.93L353.54 52.27L354.18 54.65L354.73 57.07L355.18 59.53L355.54 62.01L355.79 64.52L355.95 67.07L356 69.64L356 212.22L355.96 214.59L355.82 216.94L355.61 219.27L355.3 221.57L354.92 223.84L354.45 226.08L353.9 228.3L353.28 230.48L352.57 232.63L351.8 234.75L350.95 236.83L350.02 238.87L349.03 240.87L347.97 242.83L346.84 244.75L345.65 246.62L344.39 248.45L343.07 250.23L341.69 251.96L340.25 253.64L338.75 255.26L337.19 256.84L335.58 258.36L333.92 259.82L332.21 261.22L330.45 262.56L328.64 263.84L326.78 265.06L324.88 266.21L322.93 267.3L320.95 268.31L318.92 269.26L316.86 270.14L314.75 270.94L312.62 271.67L310.44 272.33L308.24 272.9L306.01 273.4L303.74 273.81L301.45 274.14L301.45 336.3L301.45 336.67L301.43 337.05L301.4 337.42L301.36 337.79L301.31 338.16L301.25 338.53L301.18 338.89L301.1 339.25L301.01 339.61L300.9 339.96L300.79 340.31L300.67 340.65L300.54 340.99L300.4 341.32L300.24 341.66L300.08 341.98L299.91 342.3L299.73 342.62L299.55 342.93L299.35 343.23L299.14 343.53L298.93 343.82L298.71 344.11L298.47 344.39L298.23 344.66L297.99 344.93L297.73 345.19L297.47 345.44L297.2 345.68L296.92 345.92L296.63 346.15L296.34 346.37L296.04 346.58L295.73 346.79L295.42 346.99L295.1 347.17L294.77 347.35L294.43 347.52L294.09 347.68L293.75 347.83L293.63 347.88L293.51 347.92L293.4 347.97L293.28 348.01L293.16 348.05L293.05 348.09L292.93 348.13L292.81 348.17L292.69 348.21L292.58 348.25L292.46 348.28L292.34 348.32L292.22 348.35L292.1 348.38L291.98 348.41L291.86 348.44L291.74 348.47L291.62 348.49L291.5 348.52L291.38 348.54L291.26 348.57L291.14 348.59L291.02 348.61L290.9 348.63L290.78 348.65L290.66 348.66L290.54 348.68L290.42 348.7L290.3 348.71L290.18 348.72L290.06 348.73L289.94 348.74L289.82 348.75L289.7 348.76L289.58 348.77L289.46 348.77L289.34 348.77L289.21 348.78L289.09 348.78L288.97 348.78L288.73 348.78L288.49 348.77L288.24 348.76L288 348.74L287.76 348.72L287.52 348.69L287.28 348.66L287.04 348.63L286.8 348.59L286.56 348.54L286.32 348.5L286.08 348.44L285.85 348.38L285.61 348.32L285.38 348.25L285.15 348.18L284.92 348.1L284.69 348.02L284.46 347.94L284.24 347.85L284.01 347.75L283.79 347.65L283.57 347.55L283.35 347.44L283.13 347.33L282.91 347.21L282.7 347.09L282.49 346.97L282.28 346.84L282.07 346.7L281.87 346.56L281.67 346.42L281.47 346.27L281.27 346.12L281.08 345.97L280.88 345.81L280.69 345.64L280.51 345.47L280.32 345.3L280.14 345.12L209.66 274.64L62.42 274.64L59.85 274.59L57.3 274.43L54.79 274.17L52.3 273.82L49.85 273.37L47.43 272.82L45.05 272.18L42.71 271.45L40.4 270.63L38.14 269.73L35.93 268.73L33.76 267.66L31.63 266.51L29.56 265.27L27.54 263.96L25.58 262.58L23.67 261.12L21.82 259.59L20.03 258L18.3 256.34L16.64 254.61L15.04 252.82L13.52 250.97L12.06 249.06L10.67 247.1L9.36 245.08L8.13 243L6.98 240.88L5.9 238.71L4.91 236.49L4.01 234.23L3.19 231.93L2.46 229.59L1.82 227.2L1.27 224.79L0.82 222.33L0.46 219.85L0.21 217.33L0.05 214.79L0 212.22L0 69.64L0.05 67.07L0.21 64.52L0.46 62.01L0.82 59.53L1.27 57.07L1.82 54.65L2.46 52.27L3.19 49.93L4.01 47.63L4.91 45.36L5.9 43.15L6.98 40.98L8.13 38.85L9.36 36.78L10.67 34.76L12.06 32.8L13.52 30.89L15.04 29.04L16.64 27.25L18.3 25.52L20.03 23.86L21.82 22.26L23.67 20.74L25.58 19.28L27.54 17.89L29.56 16.58L31.63 15.35L33.76 14.2L35.93 13.12L38.14 12.13L40.4 11.23L42.71 10.41L45.05 9.68L47.43 9.04L49.85 8.49L52.3 8.04L54.79 7.68L57.3 7.43L59.85 7.27L62.42 7.22L293.58 7.22L296.15 7.27L298.7 7.43ZM60.87 32.22L59.35 32.31L57.84 32.47L56.35 32.68L54.88 32.95L53.43 33.28L52 33.66L50.59 34.1L49.21 34.59L47.85 35.14L46.52 35.73L45.22 36.37L43.95 37.07L42.7 37.81L41.49 38.59L40.31 39.42L39.17 40.3L38.06 41.21L36.98 42.17L35.95 43.17L34.95 44.21L33.99 45.28L33.08 46.39L32.2 47.53L31.37 48.71L30.58 49.93L29.84 51.17L29.15 52.44L28.51 53.74L27.91 55.07L27.37 56.43L26.88 57.81L26.44 59.22L26.06 60.65L25.73 62.1L25.46 63.57L25.24 65.06L25.09 66.57L25 68.1L24.97 69.64L24.97 212.22L25 213.76L25.09 215.29L25.24 216.8L25.46 218.29L25.73 219.76L26.06 221.21L26.44 222.64L26.88 224.05L27.37 225.43L27.91 226.79L28.51 228.12L29.15 229.42L29.84 230.69L30.58 231.94L31.37 233.15L32.2 234.33L33.08 235.47L33.99 236.58L34.95 237.66L35.95 238.69L36.98 239.69L38.06 240.65L39.17 241.56L40.31 242.44L41.49 243.27L42.7 244.05L43.95 244.79L45.22 245.49L46.52 246.13L47.85 246.73L49.21 247.27L50.59 247.76L52 248.2L53.43 248.58L54.88 248.91L56.35 249.18L57.84 249.39L59.35 249.55L60.87 249.64L62.42 249.67L214.83 249.67L215.08 249.68L215.32 249.68L215.57 249.69L215.82 249.71L216.06 249.73L216.31 249.76L216.55 249.79L216.79 249.83L217.04 249.87L217.28 249.91L217.52 249.96L217.75 250.02L217.99 250.08L218.23 250.14L218.46 250.21L218.69 250.29L218.92 250.36L219.15 250.44L219.38 250.53L219.61 250.62L219.83 250.72L220.05 250.82L220.27 250.92L220.49 251.03L220.71 251.14L220.92 251.26L221.13 251.38L221.34 251.51L221.55 251.64L221.75 251.77L221.96 251.91L222.16 252.05L222.35 252.2L222.55 252.35L222.74 252.5L222.93 252.66L223.12 252.82L223.3 252.99L223.48 253.15L223.66 253.33L276.49 306.16L276.49 262.16L276.5 261.64L276.53 261.13L276.58 260.63L276.65 260.13L276.74 259.64L276.85 259.16L276.98 258.68L277.12 258.21L277.29 257.75L277.47 257.3L277.67 256.85L277.88 256.42L278.11 256L278.36 255.58L278.62 255.18L278.9 254.78L279.19 254.4L279.49 254.03L279.81 253.67L280.14 253.33L280.49 253L280.85 252.68L281.22 252.37L281.6 252.08L281.99 251.8L282.39 251.54L282.81 251.3L283.23 251.07L283.67 250.85L284.11 250.65L284.56 250.47L285.02 250.31L285.49 250.16L285.97 250.04L286.45 249.93L286.95 249.84L287.44 249.77L287.95 249.71L288.46 249.68L288.97 249.67L293.58 249.67L294.61 249.65L295.64 249.58L296.66 249.46L297.68 249.3L298.69 249.09L299.69 248.83L300.69 248.53L301.69 248.17L302.68 247.78L303.67 247.33L304.65 246.84L305.63 246.3L306.6 245.72L307.57 245.09L308.53 244.41L309.49 243.68L310.44 242.91L311.39 242.09L312.33 241.22L313.27 240.31L314.21 239.35L315.13 238.34L316.06 237.29L316.98 236.19L317.89 235.04L318.8 233.85L319.71 232.61L320.61 231.32L321.5 229.99L322.39 228.61L323.28 227.18L324.16 225.71L325.04 224.18L325.91 222.62L326.77 221L327.64 219.34L328.49 217.63L329.34 215.87L330.19 214.07L331.03 212.22L331.03 69.64L331 68.1L330.91 66.57L330.76 65.06L330.54 63.57L330.27 62.1L329.94 60.65L329.56 59.22L329.12 57.81L328.63 56.43L328.09 55.07L327.49 53.74L326.85 52.44L326.16 51.17L325.42 49.93L324.63 48.71L323.8 47.53L322.92 46.39L322.01 45.28L321.05 44.21L320.05 43.17L319.02 42.17L317.94 41.21L316.83 40.3L315.69 39.42L314.51 38.59L313.3 37.81L312.05 37.07L310.78 36.37L309.48 35.73L308.15 35.14L306.79 34.59L305.41 34.1L304 33.66L302.57 33.28L301.12 32.95L299.65 32.68L298.16 32.47L296.65 32.31L295.13 32.22L293.58 32.19L62.42 32.19L60.87 32.22Z" id="aKHGaSAvF"></path><path d="M86.12 95.61C79.23 95.61 73.64 101.2 73.64 108.1C73.64 114.99 79.23 120.58 86.12 120.58C104.5 120.58 251.5 120.58 269.88 120.58C276.77 120.58 282.36 114.99 282.36 108.1C282.36 101.2 276.77 95.61 269.88 95.61C233.13 95.61 104.5 95.61 86.12 95.61Z" id="a3oRbt3cF"></path><path d="M86.12 165.52C79.23 165.52 73.64 171.11 73.64 178C73.64 184.9 79.23 190.48 86.12 190.48C104.5 190.48 251.5 190.48 269.88 190.48C276.77 190.48 282.36 184.89 282.36 178C282.36 171.11 276.77 165.52 269.88 165.52C233.13 165.52 104.5 165.52 86.12 165.52Z" id="clfxnC6c"></path></defs><g><g><g><use xlink:href="#aKHGaSAvF" opacity="1" fill="#ffffff" fill-opacity="1"></use><g><use xlink:href="#aKHGaSAvF" opacity="1" fill-opacity="0" stroke="#000000" stroke-width="1" stroke-opacity="0"></use></g></g><g><use xlink:href="#a3oRbt3cF" opacity="1" fill="#ffffff" fill-opacity="1"></use><g><use xlink:href="#a3oRbt3cF" opacity="1" fill-opacity="0" stroke="#000000" stroke-width="1" stroke-opacity="0"></use></g></g><g><use xlink:href="#clfxnC6c" opacity="1" fill="#ffffff" fill-opacity="1"></use><g><use xlink:href="#clfxnC6c" opacity="1" fill-opacity="0" stroke="#000000" stroke-width="1" stroke-opacity="0"></use></g></g></g></g></svg>